<svg xmlns="http://www.w3.org/2000/svg" width="562" height="67" fill="none" viewBox="0 0 562 67">
  <path fill="#000" d="M28.58 53H14.054V17.462H.225V7.65h1.932c5.64 0 10.044-1.159 12.902-6.412h13.52V53Zm30.688.773c-17.615 0-26.809-10.74-26.809-26.654C32.46 11.28 41.653.465 59.268.465c17.537 0 26.73 10.816 26.73 26.654 0 15.915-9.193 26.654-26.73 26.654Zm0-14.139c8.807 0 11.125-2.935 11.125-12.515s-2.318-12.516-11.125-12.516c-8.885 0-11.203 2.936-11.203 12.516s2.318 12.516 11.203 12.516Zm56.66 14.139c-17.615 0-26.808-10.74-26.808-26.654C89.12 11.28 98.313.465 115.928.465c17.537 0 26.731 10.816 26.731 26.654 0 15.915-9.194 26.654-26.731 26.654Zm0-14.139c8.807 0 11.125-2.935 11.125-12.515s-2.318-12.516-11.125-12.516c-8.885 0-11.202 2.936-11.202 12.516s2.317 12.516 11.202 12.516ZM238.366 53h-39.324V1.238h39.324v5.021h-33.839v18.233h32.68v4.945h-32.68v18.541h33.839V53Zm13.165 0h-5.486V14.835h4.945V26.81h.386c1.313-6.49 6.721-12.748 16.224-12.748 10.739 0 16.069 7.649 16.069 16.688V53h-5.485V31.523c0-7.88-3.785-12.439-12.515-12.439-9.271 0-14.138 5.64-14.138 15.451V53Zm57.443-3.09c-11.357 0-18.31-7.494-18.31-17.924s7.185-17.924 18.928-17.924c8.035 0 14.37 3.786 15.915 10.585h.387v-9.812h4.944v34.534c0 12.593-7.958 17.537-19.469 17.537-10.352 0-18.233-5.176-18.233-14.06h5.486c0 6.72 4.481 9.348 12.979 9.348 9.889 0 13.752-3.013 13.752-12.516v-9.966h-.387c-1.545 5.871-7.184 10.198-15.992 10.198ZM296.15 31.986c0 9.735 6.026 13.056 14.292 13.056 9.425 0 14.911-4.712 14.911-12.824v-1.314c0-7.494-5.717-11.974-14.525-11.974-8.575 0-14.678 3.322-14.678 13.056Zm49.462-22.018h-5.485v-8.73h5.485v8.73Zm0 43.032h-5.485V14.835h5.485V53Zm14.712 0h-5.485V14.835h4.944V26.81h.387c1.313-6.49 6.721-12.748 16.224-12.748 10.738 0 16.069 7.649 16.069 16.688V53h-5.485V31.523c0-7.88-3.786-12.439-12.516-12.439-9.271 0-14.138 5.64-14.138 15.451V53Zm59.221.773c-12.284 0-20.087-7.726-20.087-19.856 0-11.588 7.726-19.855 20.01-19.855 11.202 0 19.159 6.49 19.159 17.847 0 1.39-.154 2.55-.386 3.554h-33.607c.309 8.575 4.713 13.751 14.834 13.751 8.961 0 13.133-3.322 13.133-8.884v-.541h5.486v.54c0 7.958-7.881 13.444-18.542 13.444Zm-.155-35.152c-9.889 0-14.369 5.099-14.756 13.442h28.817v-1.159c0-8.034-5.099-12.283-14.061-12.283Zm44.668 35.152c-12.284 0-20.087-7.726-20.087-19.856 0-11.588 7.726-19.855 20.01-19.855 11.202 0 19.16 6.49 19.16 17.847 0 1.39-.155 2.55-.387 3.554h-33.606c.309 8.575 4.712 13.751 14.833 13.751 8.962 0 13.134-3.322 13.134-8.884v-.541h5.485v.54c0 7.958-7.88 13.444-18.542 13.444Zm-.154-35.152c-9.889 0-14.37 5.099-14.756 13.442h28.817v-1.159c0-8.034-5.099-12.283-14.061-12.283ZM495.901 53h-5.485V14.835h4.945v10.43h.386c1.159-6.104 5.485-11.203 13.443-11.203 8.807 0 12.67 6.49 12.67 13.598v3.785h-5.485V28.51c0-6.49-2.704-9.657-9.348-9.657-7.726 0-11.126 4.867-11.126 13.443V53Zm49.079.773c-11.743 0-18.542-4.713-18.542-13.52v-.155h5.485v.464c0 6.412 3.786 8.652 13.134 8.652 8.575 0 11.511-2.008 11.511-6.412 0-4.017-2.395-5.33-8.73-6.335l-10.198-1.468c-6.953-.927-11.357-3.631-11.357-9.966 0-6.722 6.413-10.97 16.92-10.97 10.97 0 18.078 4.635 18.078 13.597v.154h-5.485v-.386c0-5.717-3.013-8.807-12.748-8.807-8.034 0-11.357 1.931-11.357 6.49 0 3.94 2.009 5.33 8.344 6.257l9.348 1.313c8.19 1.16 12.593 3.94 12.593 10.121 0 7.185-7.107 10.97-16.996 10.97Z"/>
  <path fill="#FF6445" d="M161 53h-17.538l14.525-18.85v-.773l-14.525-19.315h17.769l7.958 11.743h.772l7.649-11.743h17.537l-14.524 19.083v.772L195.147 53h-17.769l-7.957-11.434h-.773L161 53Z"/>
</svg>
